<?xml version="1.0" encoding="utf-8"?>
<!-- Generator: Adobe Illustrator 21.0.0, SVG Export Plug-In . SVG Version: 6.00 Build 0)  -->
<svg version="1.1" id="Слой_1" xmlns="http://www.w3.org/2000/svg" xmlns:xlink="http://www.w3.org/1999/xlink" x="0px" y="0px"
	 viewBox="0 0 314 95.6" style="enable-background:new 0 0 314 95.6;" xml:space="preserve">
<style type="text/css">
	.st0{fill:#696B6D;}
	.st1{fill:#ED3237;}
</style>
<g id="Layer_x0020_1">
	<g id="_298147592">
		<path class="st0" d="M14.7,68.3c5.4,3,12.5,3.5,17.9,0.2l11.1-6.8l4.5-2.7l4.5-2.8l-2.9-4.6l-2.9-4.6l-4.5,2.7l-4.5,2.8l-2.9-4.6
			l4.5-2.7l4.5-2.8L41,37.7l4.5-2.8l2.9,4.6l-4.5,2.7l2.9,4.6l4.5-2.8l2.9,4.6l4.5-2.8l2.9,4.6l-4.5,2.8l-2.9-4.6l-4.5,2.7l-4.5,2.8
			l-2.9-4.6l-2.9-4.6l-2.9-4.6L20.8,50c-5,3.1-7.6,9.4-6.6,14.8L14.7,68.3z"/>
		<path class="st1" d="M2.7,54.5C-2.1,46.1-0.4,34,7.5,29.1l29.6-18.1l4.5-2.7l4.5-2.8l2.9,4.6l3,4.6l-4.5,2.7L43,20.4L46,25
			l4.5-2.7l4.5-2.8l2.9,4.6l4.5-2.8l-3-4.6l-4.5,2.7l-2.9-4.6l4.5-2.8l-2.9-4.6l4.5-2.7L55.3,0l-4.5,2.8l2.9,4.6l-4.5,2.8l-4.5,2.7
			l2.9,4.6l2.9,4.6l2.9,4.6l-4.5,2.8L19.3,47.7c-6.1,3.7-9.4,11.3-8.1,18.1c-1.3-1.1-2.9-2.9-3.9-4.1C5.9,59.8,4.3,57.3,2.7,54.5z"
			/>
		<polygon class="st0" points="108.9,70.3 93.1,46.5 108.2,23.8 100,23.8 89.5,41 78.8,23.8 70.6,23.8 85.8,46.5 70,70.3 78.2,70.3 
			89.5,52.2 100.7,70.3 		"/>
		<path class="st0" d="M144.7,43.7h-24.6c0.2-3.8,0.4-5.2,1.4-7.8c1.8-4.3,6-7,10.9-7c4.9,0,9.1,2.7,10.9,7
			C144.3,38.5,144.5,39.9,144.7,43.7z M151.5,48.8v-3.1c0-13.8-7.1-22.5-19.1-22.5c-11.8,0-19.1,8.8-19.1,23.8
			c0,16.5,8,23.8,20.3,23.8c7.9,0,12.3-2.5,17-7.2l-4.6-4.1c-3.7,3.7-6.8,5.3-12.2,5.3c-8.9,0-13.7-5.9-13.7-16.1H151.5z"/>
		<path class="st0" d="M216.5,43.7H192c0.2-3.8,0.4-5.2,1.4-7.8c1.8-4.3,6-7,10.9-7c4.9,0,9.1,2.7,10.9,7
			C216.1,38.5,216.3,39.9,216.5,43.7z M223.3,48.8v-3.1c0-13.8-7.1-22.5-19.1-22.5c-11.8,0-19.1,8.8-19.1,23.8
			c0,16.5,8.1,23.8,20.3,23.8c8,0,12.3-2.5,17-7.2l-4.6-4.1c-3.7,3.7-6.8,5.3-12.2,5.3c-8.9,0-13.7-5.9-13.7-16.1H223.3z"/>
		<path class="st0" d="M180.5,70.3v-5.9h-3.7c-4.7,0-6.2-2.3-6.2-6.8v-52h-6.8v52.3c0,7.1,3.7,12.4,11.8,12.4H180.5z"/>
		<path class="st0" d="M272.4,70.3V40.5c0-5.4-1.5-9.7-4.8-13c-2.8-2.8-6.9-4.3-11.9-4.3c-5.2,0-9.7,1.9-13,5.7v-5.1h-6.8v46.5h6.8
			V41.6c0-8.1,4.5-12.4,11.5-12.4c7,0,11.5,4.2,11.5,12.4v28.7H272.4z"/>
		<path class="st1" d="M133.3,83c0,0.9-0.7,1.4-1.4,2c0,0-0.6,0.4-0.8,0.6c-1-1.2-1.4-1.8-1.4-2.6c0-1,0.7-1.8,1.8-1.8
			C132.5,81.1,133.3,81.9,133.3,83z M134.9,92.6c-1.3,1.2-2.5,1.5-3.7,1.5c-1.9,0-3.3-1.2-3.3-3.1c0-1.8,1.3-2.7,2.7-3.6L134.9,92.6
			z M139.4,95.4l-2.4-2.9c1-1.2,1.4-2.8,1.4-4.8h-1.6c0,1.8-0.3,2.6-0.9,3.6l-4-4.8c0.4-0.3,1.2-0.8,1.2-0.8c1-0.7,1.7-1.5,1.7-2.8
			c0-1.9-1.4-3.3-3.4-3.3c-2,0-3.5,1.4-3.5,3.3c0,1.4,0.9,2.5,1.7,3.4c-1.7,1.1-3.4,2.3-3.4,4.7c0,2.7,1.9,4.6,5,4.6
			c2.5,0,4-1.2,4.6-1.8l1.4,1.7H139.4z"/>
		<path class="st0" d="M304.1,92.3c0-2-1.3-2.7-3.2-2.9l-1.7-0.1c-1.4-0.1-1.9-0.7-1.9-1.6c0-1.1,0.9-1.8,2.4-1.8
			c1.1,0,2.1,0.3,2.9,0.9l1-1c-1-0.8-2.4-1.2-3.9-1.2c-2.3,0-4,1.2-4,3.2c0,1.8,1.1,2.7,3.2,2.9l1.8,0.2c1.2,0.1,1.8,0.6,1.8,1.6
			c0,1.3-1.1,1.9-2.9,1.9c-1.4,0-2.5-0.4-3.4-1.2l-1,1c1.2,1.1,2.6,1.6,4.4,1.6C302.3,95.6,304.1,94.4,304.1,92.3z M292,95.4v-6.9
			c0-1.2-0.3-2.3-1.1-3c-0.7-0.7-1.6-1-2.8-1c-1.2,0-2.3,0.4-3,1.3v-1.2h-1.6v10.8h1.6v-6.7c0-1.9,1-2.9,2.7-2.9
			c1.6,0,2.6,1,2.6,2.9v6.7H292z M278.1,90c0,1.2-0.1,2.6-0.9,3.3c-0.5,0.5-1.2,0.8-2,0.8c-0.8,0-1.5-0.3-2-0.8
			c-0.8-0.8-0.9-2.1-0.9-3.3c0-1.2,0.1-2.6,0.9-3.3c0.5-0.5,1.2-0.8,2-0.8c0.8,0,1.5,0.3,2,0.8C278,87.5,278.1,88.8,278.1,90z
			 M279.6,90c0-1.6-0.2-3.2-1.3-4.3c-0.7-0.7-1.8-1.2-3.1-1.2c-1.3,0-2.4,0.5-3.1,1.2c-1.1,1.1-1.3,2.7-1.3,4.3
			c0,1.7,0.2,3.2,1.3,4.3c0.8,0.7,1.8,1.2,3.1,1.2c1.3,0,2.4-0.5,3.1-1.2C279.4,93.2,279.6,91.7,279.6,90z M267.1,81.6v-1.8h-1.8
			v1.8H267.1z M267,95.4V84.6h-1.6v10.8H267z M261.8,95.4v-1.4H261c-1,0-1.5-0.6-1.5-1.6v-6.6h2.3v-1.2h-2.3v-3.4h-1.6v3.4h-1.4v1.2
			h1.4v6.6c0,1.6,0.9,2.9,2.8,2.9H261.8z M253.3,95.4V84.6h-1.6v6.7c0,1.9-1.1,2.9-2.7,2.9c-1.6,0-2.6-1-2.6-2.9v-6.7h-1.6v6.9
			c0,1.2,0.3,2.3,1.1,3c0.7,0.7,1.6,1,2.8,1c1.2,0,2.3-0.5,3.1-1.3v1.2H253.3z M241.8,95.4v-1.4h-0.9c-1.1,0-1.4-0.5-1.4-1.6V79.8
			h-1.6v12.8c0,1.6,0.9,2.9,2.7,2.9H241.8z M232.5,90c0,1.2-0.1,2.6-0.9,3.3c-0.5,0.5-1.2,0.8-2,0.8c-0.8,0-1.4-0.3-2-0.8
			c-0.8-0.8-0.9-2.1-0.9-3.3c0-1.2,0.1-2.6,0.9-3.3c0.5-0.5,1.2-0.8,2-0.8c0.8,0,1.5,0.3,2,0.8C232.5,87.5,232.5,88.8,232.5,90z
			 M234.1,90c0-1.6-0.2-3.2-1.3-4.3c-0.7-0.7-1.8-1.2-3.1-1.2c-1.3,0-2.4,0.5-3.1,1.2c-1.1,1.1-1.3,2.7-1.3,4.3
			c0,1.7,0.2,3.2,1.3,4.3c0.8,0.7,1.8,1.2,3.1,1.2c1.3,0,2.4-0.5,3.1-1.2C233.9,93.2,234.1,91.7,234.1,90z M222.2,91.1
			c0-1.3-0.5-2.4-1.3-3.1c-0.7-0.6-1.4-0.9-2.9-1.1l-1.7-0.3c-0.8-0.1-1.6-0.5-2.1-0.9c-0.5-0.4-0.7-1-0.7-1.8
			c0-1.7,1.2-2.9,3.3-2.9c1.6,0,2.7,0.5,3.7,1.4l1.1-1.1c-1.4-1.2-2.7-1.7-4.7-1.7c-3.1,0-5,1.8-5,4.4c0,1.2,0.4,2.2,1.2,2.9
			c0.7,0.6,1.6,1,2.9,1.2l1.8,0.3c1.1,0.2,1.5,0.3,2,0.8c0.5,0.4,0.8,1.1,0.8,2c0,1.8-1.4,2.9-3.7,2.9c-1.8,0-2.9-0.4-4.3-1.7
			l-1.2,1.1c1.5,1.5,3,2.1,5.4,2.1C220.1,95.6,222.2,93.9,222.2,91.1z"/>
		<path class="st0" d="M201,90c0,2.1-0.4,4.1-2.7,4.1s-2.7-2-2.7-4.1c0-2.1,0.4-4.1,2.7-4.1S201,87.9,201,90z M202.6,95.4V79.8H201
			v6.1c-0.9-1.1-1.9-1.4-3.1-1.4c-1.1,0-2.1,0.4-2.6,0.9c-1.1,1.1-1.3,2.9-1.3,4.6c0,1.7,0.2,3.5,1.3,4.6c0.6,0.6,1.5,0.9,2.6,0.9
			c1.2,0,2.2-0.3,3.1-1.4v1.3H202.6z M190.2,95.4V84.6h-1.6v6.7c0,1.9-1.1,2.9-2.7,2.9c-1.6,0-2.7-1-2.7-2.9v-6.7h-1.6v6.9
			c0,1.2,0.3,2.3,1.1,3c0.7,0.7,1.6,1,2.8,1c1.2,0,2.3-0.5,3.1-1.3v1.2H190.2z M176.4,90c0,1.2-0.1,2.6-0.9,3.3
			c-0.5,0.5-1.2,0.8-2,0.8s-1.4-0.3-2-0.8c-0.8-0.8-0.9-2.1-0.9-3.3c0-1.2,0.1-2.6,0.9-3.3c0.5-0.5,1.2-0.8,2-0.8s1.5,0.3,2,0.8
			C176.3,87.5,176.4,88.8,176.4,90z M178,90c0-1.6-0.2-3.2-1.3-4.3c-0.7-0.7-1.8-1.2-3.1-1.2c-1.3,0-2.4,0.5-3.1,1.2
			c-1.1,1.1-1.3,2.7-1.3,4.3c0,1.7,0.2,3.2,1.3,4.3c0.7,0.7,1.8,1.2,3.1,1.2c1.3,0,2.4-0.5,3.1-1.2C177.8,93.2,178,91.7,178,90z
			 M167.1,95.4v-1.4h-0.9c-1.1,0-1.4-0.5-1.4-1.6V79.8h-1.6v12.8c0,1.6,0.9,2.9,2.7,2.9H167.1z M159.4,90.9h-1.7
			c-0.4,1.9-1.8,3.1-3.8,3.1c-1,0-2-0.4-2.7-1.1c-1-1-1.1-2.1-1.1-5.4c0-3.3,0.1-4.4,1.1-5.4c0.7-0.7,1.7-1.1,2.7-1.1
			c2,0,3.3,1.2,3.7,3.2h1.7c-0.5-2.9-2.6-4.7-5.4-4.7c-1.5,0-2.9,0.6-4,1.6c-1.5,1.5-1.5,3-1.5,6.3s0,4.9,1.5,6.3c1,1,2.5,1.6,4,1.6
			C156.7,95.6,158.9,93.9,159.4,90.9z"/>
		<path class="st0" d="M116.8,95.4v-6.9c0-1.2-0.3-2.3-1.1-3c-0.7-0.7-1.6-1-2.8-1c-1.2,0-2.3,0.4-3,1.3v-1.2h-1.6v10.8h1.6v-6.7
			c0-1.9,1-2.9,2.7-2.9c1.6,0,2.7,1,2.7,2.9v6.7H116.8z M103,90c0,1.2-0.1,2.6-0.9,3.3c-0.5,0.5-1.2,0.8-2,0.8c-0.8,0-1.4-0.3-2-0.8
			c-0.8-0.8-0.9-2.1-0.9-3.3c0-1.2,0.1-2.6,0.9-3.3c0.5-0.5,1.2-0.8,2-0.8c0.8,0,1.5,0.3,2,0.8C102.9,87.5,103,88.8,103,90z
			 M104.5,90c0-1.6-0.2-3.2-1.3-4.3c-0.7-0.7-1.8-1.2-3.1-1.2c-1.3,0-2.4,0.5-3.1,1.2c-1.1,1.1-1.3,2.7-1.3,4.3
			c0,1.7,0.2,3.2,1.3,4.3c0.7,0.7,1.8,1.2,3.1,1.2c1.3,0,2.4-0.5,3.1-1.2C104.3,93.2,104.5,91.7,104.5,90z M92,81.6v-1.8h-1.8v1.8
			H92z M91.8,95.4V84.6h-1.6v10.8H91.8z M86.7,95.4v-1.4h-0.8c-1,0-1.5-0.6-1.5-1.6v-6.6h2.3v-1.2h-2.3v-3.4h-1.6v3.4h-1.4v1.2h1.4
			v6.6c0,1.6,0.9,2.9,2.8,2.9H86.7z M76.7,91.6c0,0.9-0.2,1.5-0.5,1.9c-0.7,0.7-1.5,0.7-2.4,0.7c-1.7,0-2.5-0.6-2.5-1.8
			c0-1.3,0.8-1.9,2.4-1.9h3V91.6z M78.3,95.4v-7.3c0-2.4-1.4-3.6-4.3-3.6c-1.8,0-2.9,0.3-3.8,1.6l1.1,1c0.7-0.9,1.3-1.2,2.7-1.2
			c2,0,2.8,0.8,2.8,2.4v1h-3.3c-2.4,0-3.7,1.2-3.7,3.1c0,0.9,0.3,1.6,0.8,2.2c0.7,0.7,1.6,1,3.1,1c1.4,0,2.2-0.3,3.1-1.2v1H78.3z
			 M67.4,94l-1.1-1c-0.8,0.9-1.5,1.2-2.5,1.2c-1,0-1.9-0.4-2.5-1.2c-0.5-0.7-0.7-1.5-0.7-2.9c0-1.4,0.2-2.2,0.7-2.9
			c0.6-0.8,1.5-1.2,2.5-1.2c1,0,1.7,0.3,2.5,1.2l1.1-1c-1.1-1.2-2.1-1.6-3.6-1.6c-2.7,0-4.8,1.8-4.8,5.5c0,3.7,2.1,5.6,4.8,5.6
			C65.3,95.6,66.3,95.2,67.4,94z M54.2,90c0,1.2-0.1,2.6-0.9,3.3c-0.5,0.5-1.2,0.8-2,0.8s-1.4-0.3-2-0.8c-0.8-0.8-0.9-2.1-0.9-3.3
			c0-1.2,0.1-2.6,0.9-3.3c0.5-0.5,1.2-0.8,2-0.8s1.5,0.3,2,0.8C54.1,87.5,54.2,88.8,54.2,90z M55.8,90c0-1.6-0.2-3.2-1.3-4.3
			c-0.8-0.7-1.8-1.2-3.1-1.2c-1.3,0-2.4,0.5-3.1,1.2c-1.1,1.1-1.3,2.7-1.3,4.3c0,1.7,0.2,3.2,1.3,4.3c0.7,0.7,1.8,1.2,3.1,1.2
			c1.3,0,2.4-0.5,3.1-1.2C55.6,93.2,55.8,91.7,55.8,90z M44.8,95.4v-1.4H44c-1.1,0-1.4-0.5-1.4-1.6V79.8H41v12.8
			c0,1.6,0.9,2.9,2.7,2.9H44.8z M35.6,90c0,1.2-0.1,2.6-0.9,3.3c-0.5,0.5-1.2,0.8-2,0.8s-1.4-0.3-2-0.8c-0.8-0.8-0.9-2.1-0.9-3.3
			c0-1.2,0.1-2.6,0.9-3.3c0.5-0.5,1.2-0.8,2-0.8s1.5,0.3,2,0.8C35.6,87.5,35.6,88.8,35.6,90z M37.2,90c0-1.6-0.2-3.2-1.3-4.3
			c-0.7-0.7-1.8-1.2-3.1-1.2s-2.4,0.5-3.1,1.2c-1.1,1.1-1.3,2.7-1.3,4.3c0,1.7,0.2,3.2,1.3,4.3c0.7,0.7,1.8,1.2,3.1,1.2
			s2.4-0.5,3.1-1.2C37,93.2,37.2,91.7,37.2,90z M25.1,90.9h-1.7c-0.4,1.9-1.8,3.1-3.8,3.1c-1,0-2-0.4-2.7-1.1c-1-1-1.1-2.1-1.1-5.4
			c0-3.3,0.1-4.4,1.1-5.4c0.7-0.7,1.7-1.1,2.7-1.1c2,0,3.3,1.2,3.7,3.2h1.7c-0.5-2.9-2.6-4.7-5.4-4.7c-1.5,0-2.9,0.6-4,1.6
			c-1.5,1.5-1.5,3-1.5,6.3s0,4.9,1.5,6.3c1,1,2.5,1.6,4,1.6C22.5,95.6,24.6,93.9,25.1,90.9z"/>
		<path class="st0" d="M303.8,70.3v-5.9h-3.6c-4.4,0-6.3-2.6-6.3-6.8V29h9.9v-5.2h-9.9V5.6H287v18.1h-5.9V29h5.9v28.8
			c0,6.9,4,12.5,11.9,12.5H303.8z"/>
		<polygon class="st1" points="314,23.8 308.8,23.8 308.8,29 314,29 		"/>
	</g>
</g>
</svg>
